<?xml version="1.0" encoding="UTF-8" standalone="no"?>
<!-- Created with Inkscape (http://www.inkscape.org/) -->
<svg
   xmlns:svg="http://www.w3.org/2000/svg"
   xmlns="http://www.w3.org/2000/svg"
   version="1.0"
   width="177"
   height="34">
  <path
     d="M 21.171875,19.87305 C 21.171875,11.66992 27.822263,4.98535 36.025388,4.98535 L 175.89842,5.01954 L 176.49901,0 L 17.534175,0.02441 C 15.800775,0.02441 13.315425,0.28809 11.748037,0.77149 C 4.936512,2.87109 0,9.15527 0,16.58204 C 0,23.97461 4.887687,30.22944 11.635737,32.36819 C 13.242175,32.86619 15.756825,33.14456 17.534175,33.14456 L 29.3164,33.12506 C 24.482412,30.67381 21.171875,25.66406 21.171875,19.87305 z M 53.4082,18.6084 L 51.48437,18.6084 L 52.08008,14.45801 L 54.01855,14.45801 C 54.01855,14.45801 55.96679,14.36524 55.96679,16.40136 C 55.96679,18.43261 54.36035,18.6084 53.4082,18.6084 z M 62.10937,25.11719 C 61.86522,23.34961 60.38085,21.67969 58.75487,20.9668 C 59.37987,20.43457 60.04394,20.00976 60.47851,19.38476 C 61.90429,17.56836 62.1875,14.89257 61.42577,12.74414 C 60.8496,11.2207 59.26758,10.06836 57.73437,9.83399 C 56.37695,9.6582 54.458,9.56542 52.58789,9.52636 L 46.31835,9.51171 L 43.00292,33.12506 L 53.22754,33.12506 C 55.40039,33.17869 56.90429,33.05669 58.43261,32.24606 C 60.96679,30.75681 62.39258,28.03222 62.10937,25.11719 z M 55.23925,27.11914 C 54.65331,27.97851 53.68164,28.07617 52.92967,28.07617 L 50.16601,28.07617 L 50.83984,23.41796 L 53.61327,23.41796 C 53.61327,23.41796 55.79101,23.31542 55.79101,25.59082 C 55.79101,26.26465 55.48339,26.75781 55.23925,27.11914 z M 74.35546,9.51171 L 72.3291,24.34082 C 72.23633,25.29296 72.57324,26.11329 73.19335,26.77734 C 74.72167,28.01757 77.1582,28.01757 78.92577,27.29492 C 80.92772,26.28906 80.79101,24.04296 81.16699,22.17774 L 82.84179,9.51171 L 89.35546,9.51171 C 89.35546,9.51171 87.90039,20.3125 87.09472,25.61035 C 86.86522,28.8623 84.52636,32.02144 81.36717,32.97856 C 76.7871,34.46781 70.71776,34.23344 67.4121,30.32231 C 66.02539,28.60351 65.63964,26.40625 65.8789,24.0625 C 66.49414,19.28222 67.80272,9.51171 67.80272,9.51171 L 74.35546,9.51171 z M 79.42383,17.58789 L 80.4248,9.51171 L 76.66015,9.51171 L 75.65429,17.58789 L 79.42383,17.58789 z M 109.57519,9.47754 L 108.31054,18.38867 L 100.43945,18.38867 L 101.68945,9.5166 L 95.27342,9.5166 L 91.9287,33.15919 L 98.34472,33.15919 L 99.61914,24.12109 L 107.5,24.12109 L 106.23046,33.12506 L 112.63182,33.12506 L 115.97655,9.47754 L 109.57519,9.47754 z M 125.69335,27.50976 L 128.25682,9.53125 L 121.8457,9.53125 L 118.49609,33.12506 L 132.82226,33.12506 L 133.62304,27.50976 L 125.69335,27.50976 z M 152.21679,14.45801 L 152.91991,9.51171 L 139.43359,9.52636 L 136.08397,33.12506 L 149.92187,33.12506 L 150.71289,27.50976 L 143.29101,27.50976 L 143.8623,23.48145 L 150.98144,23.48145 L 151.67967,18.53516 L 144.56054,18.53516 L 145.13671,14.45801 L 152.21679,14.45801 z M 167.33397,19.2627 C 166.52342,20.01465 165.83008,20.03906 165.21972,20.03906 L 163.11522,20.02441 L 163.92089,14.43359 L 166.04491,14.44336 C 166.04491,14.44336 168.0957,14.45801 168.0957,17.06542 C 168.0957,18.19336 167.77342,18.82812 167.33397,19.2627 z M 171.94335,10.98632 C 171.22557,10.45899 170.41504,10.07812 169.55077,9.8877 C 167.9248,9.6582 166.27929,9.53125 164.60449,9.47754 L 158.19335,9.47754 L 154.84375,33.12506 L 161.31347,33.12506 L 162.54883,24.04296 L 167.57812,33.11031 L 174.69237,33.10544 L 169.33592,24.16504 L 169.47265,24.12597 C 170.79101,23.74024 171.86035,22.95899 172.76855,21.9043 C 172.76855,21.9043 174.44335,20.36621 174.44335,16.69434 C 174.44335,13.02734 172.4414,11.39649 171.94335,10.98632"
     style="fill:#00a89c;fill-opacity:1;fill-rule:evenodd;stroke:none" />
</svg>
