<?xml version="1.0" encoding="UTF-8" standalone="no"?>
<!-- Created with Inkscape (http://www.inkscape.org/) -->

<svg
   xmlns:dc="http://purl.org/dc/elements/1.1/"
   xmlns:cc="http://creativecommons.org/ns#"
   xmlns:rdf="http://www.w3.org/1999/02/22-rdf-syntax-ns#"
   xmlns:svg="http://www.w3.org/2000/svg"
   xmlns="http://www.w3.org/2000/svg"
   xmlns:sodipodi="http://sodipodi.sourceforge.net/DTD/sodipodi-0.dtd"
   xmlns:inkscape="http://www.inkscape.org/namespaces/inkscape"
   id="svg3031"
   version="1.1"
   inkscape:version="0.48.5 r10040"
   width="30"
   height="30"
   xml:space="preserve"
   sodipodi:docname="logo.svg"><metadata
     id="metadata3037"><rdf:RDF><cc:Work
         rdf:about=""><dc:format>image/svg+xml</dc:format><dc:type
           rdf:resource="http://purl.org/dc/dcmitype/StillImage" /><dc:title></dc:title></cc:Work></rdf:RDF></metadata><defs
     id="defs3035"><clipPath
       clipPathUnits="userSpaceOnUse"
       id="clipPath3045"><path
         d="M 0,24 24,24 24,0 0,0 0,24 z"
         id="path3047" /></clipPath></defs><sodipodi:namedview
     pagecolor="#ffffff"
     bordercolor="#666666"
     borderopacity="1"
     objecttolerance="10"
     gridtolerance="10"
     guidetolerance="10"
     inkscape:pageopacity="0"
     inkscape:pageshadow="2"
     inkscape:window-width="1280"
     inkscape:window-height="657"
     id="namedview3033"
     showgrid="false"
     inkscape:zoom="5.6568543"
     inkscape:cx="25.332547"
     inkscape:cy="32.687092"
     inkscape:window-x="-8"
     inkscape:window-y="-8"
     inkscape:window-maximized="1"
     inkscape:current-layer="g3039" /><g
     id="g3039"
     inkscape:groupmode="layer"
     inkscape:label="0137"
     transform="matrix(1.25,0,0,-1.25,0,30)"><g
       id="g3041"
       style="fill:#08cfaa;fill-opacity:1"><g
         id="g3043"
         clip-path="url(#clipPath3045)"
         style="fill:#08cfaa;fill-opacity:1"><g
           id="g3049"
           transform="translate(4.4448,6.9648)"
           style="fill:#08cfaa;fill-opacity:1"><path
             d="m 0,0 c -0.033,3.313 1.667,5.014 1.697,8.982 0.004,1.922 1.017,3.598 2.53,4.556 C 5.692,13.7 7.377,12.992 7.662,10.544 7.783,9.502 7.685,7.84 7.671,5.912 2.63,2.436 4.705,-2.884 5.324,-2.884 c 0.542,0 0.444,2.028 2.649,3.789 0.275,-1.815 0.793,-3.621 1.734,-5.219 l -8.651,0 C 0.733,-3.851 0.002,-2.545 0,0 m 16.595,-4.505 c -3.474,3.347 -1.688,10.151 -2.95,14.942 l -10e-4,0 c -0.665,3.001 -3.34,5.248 -6.542,5.248 -3.325,0 -6.076,-2.422 -6.605,-5.595 L -1.979,8.991 0.354,8.111 C 0.127,5.208 -1.269,3.49 -1.299,0 c -0.004,-2.063 0.445,-3.45 0.866,-4.314 l -2.168,0 0,-1.3 3.076,0 0.269,0 16.964,0 -1.113,1.109 z"
             style="fill:#08cfaa;fill-opacity:1;fill-rule:nonzero;stroke:none"
             id="path3051" /></g><g
           id="g3053"
           transform="translate(9.4946,17.5088)"
           style="fill:#08cfaa;fill-opacity:1"><path
             d="M 0,0 C 0,0.496 -0.4,0.895 -0.896,0.895 -1.389,0.895 -1.79,0.496 -1.79,0 c 0,-0.496 0.401,-0.895 0.894,-0.895 C -0.4,-0.895 0,-0.496 0,0"
             style="fill:#08cfaa;fill-opacity:1;fill-rule:nonzero;stroke:none"
             id="path3055" /></g></g></g></g></svg>