<?xml version="1.0" standalone="no"?>
<!DOCTYPE svg PUBLIC "-//W3C//DTD SVG 20010904//EN"
 "http://www.w3.org/TR/2001/REC-SVG-20010904/DTD/svg10.dtd">
<svg version="1.0" xmlns="http://www.w3.org/2000/svg"
 width="700.000000pt" height="700.000000pt" viewBox="0 0 700.000000 700.000000"
 preserveAspectRatio="xMidYMid meet">
<metadata>
Created by potrace 1.14, written by Peter Selinger 2001-2017
</metadata>
<g transform="translate(0.000000,700.000000) scale(0.100000,-0.100000)"
fill="#000000" stroke="none">
<path d="M3258 6605 c-2 -2 -40 -6 -86 -9 -46 -4 -89 -9 -95 -11 -7 -2 -28 -6
-47 -9 -291 -45 -608 -186 -870 -389 -81 -63 -271 -252 -331 -332 -194 -254
-322 -540 -384 -861 -4 -16 -52 -41 -227 -119 -123 -54 -245 -108 -273 -120
-27 -13 -89 -41 -138 -62 l-87 -40 112 -42 c62 -23 215 -81 340 -128 l228 -86
-5 -56 c-7 -69 -21 -171 -40 -273 -3 -16 -7 -38 -9 -50 -16 -86 -100 -397
-146 -538 -76 -230 -173 -573 -194 -680 -2 -14 -11 -56 -19 -95 -18 -83 -45
-265 -52 -350 -3 -33 -8 -89 -11 -125 -11 -124 -6 -390 11 -570 28 -290 97
-569 198 -806 l35 -80 -310 0 c-245 1 -312 -2 -316 -12 -6 -17 -8 -362 -2
-363 19 -6 5910 -3 5908 2 -2 4 -104 110 -228 236 -174 176 -242 252 -297 334
-70 104 -154 256 -202 369 -24 56 -108 309 -115 345 -2 11 -12 52 -21 90 -24
102 -47 221 -59 315 -19 137 -26 194 -32 255 -3 39 -8 84 -9 100 -15 152 -30
466 -40 830 -11 423 -22 716 -30 805 -2 30 -7 98 -10 150 -14 211 -45 461 -80
630 -3 14 -7 36 -10 50 -20 103 -82 331 -115 420 -146 400 -450 769 -813 989
-251 152 -479 229 -817 277 -42 6 -307 13 -312 9z m-463 -629 c433 -70 698
-404 742 -938 8 -99 9 -670 1 -1052 l-5 -228 -114 -87 c-135 -102 -339 -302
-431 -421 -152 -198 -257 -397 -329 -625 -15 -49 -30 -102 -33 -117 -2 -15 -7
-31 -9 -35 -3 -5 -8 -33 -12 -63 -4 -30 -9 -58 -11 -61 -9 -14 -18 -171 -18
-299 0 -117 7 -228 19 -289 2 -10 6 -36 9 -57 28 -179 124 -414 198 -485 70
-66 107 -28 199 203 124 313 257 525 449 716 115 115 169 158 174 140 2 -7 9
-44 15 -83 6 -38 13 -81 16 -95 3 -14 12 -61 21 -105 51 -259 167 -634 262
-845 52 -117 133 -282 156 -318 14 -23 26 -45 26 -50 0 -4 -565 -8 -1257 -8
l-1256 1 -37 55 c-44 66 -109 206 -143 311 -131 391 -165 909 -92 1379 21 129
95 413 170 650 157 490 207 690 249 985 22 150 26 193 31 343 10 267 14 321
30 413 69 399 281 746 604 990 57 43 114 80 125 81 33 5 207 1 251 -6z"/>
<path d="M2449 5361 c-78 -16 -165 -96 -188 -173 -61 -203 120 -387 324 -330
181 51 243 294 110 427 -67 68 -153 94 -246 76z"/>
</g>
</svg>
